# xmcd
#
# Track frame offsets: 
#        150
#        15842
#        33889
#        49558
#        78536
#        97158
#        139735
#        164031
#        180126
#
# Disc length: 2705 seconds
#
# Revision: 1
# Processed by: cddbd v1.5.2PL0 Copyright (c) Steve Scherf et al.
# Submitted via: ExactAudioCopy v1.0b4
#
DISCID=640a8f09
DTITLE=Rokia Traoré - Beautiful Africa
DYEAR=2013
DGENRE=World
TTITLE0=Lalla
TTITLE1=Kouma
TTITLE2=Sikey
TTITLE3=Ka Moun Ke
TTITLE4=Mélancolie
TTITLE5=N'Téri
TTITLE6=Tuit Tuit
TTITLE7=Beautiful Africa
TTITLE8=Sarama
EXTD=
EXTT0=
EXTT1=
EXTT2=
EXTT3=
EXTT4=
EXTT5=
EXTT6=
EXTT7=
EXTT8=
PLAYORDER=
